-------------------------------------------------
AVC (Advanced Video Coding) H264
High Efficiency Dolby Digital Stereo
-------------------------------------------------

IMDB 
http://www.imdb.com/title/tt0096244/

Mac Mckussic is an unlikely drug dealer who wants to go straight. His old and best friend Nick Frescia is now a cop who is assigned to investigate and bring him to justice. Mac is very attracted to Jo Ann, the owner of a stylish restaurant. Nick gets close to Jo Ann attempting to know more about Mac's drug dealing plans and his connections with the Mexican dealer Carlos, who the police believe is coming to town to meet with him. Nick also falls for Jo Ann's charms and his friendship with Mac is in danger.

Mel Gibson, Michelle Pfeiffer and Kurt Russell


Tequila Sunrise (1988) DVDrip [Gr Subs] Omifast™ Media Info

Format                           : MPEG-4
Format profile                   : Base Media / Version 2
File size                        : 690 MiB
Duration                         : 1h 52mn
Overall bit rate                 : 860 Kbps

Video
Format/Info                      : Advanced Video Codec
Codec ID/Info                    : Advanced Video Coding
Duration                         : 1h 52mn
Bit rate mode                    : Variable
Bit rate                         : 759 Kbps
Maximum bit rate                 : 3 536 Kbps
Width                            : 720 pixels
Height                           : 400 pixels
Display aspect ratio             : 16:9
Frame rate                       : 25.000 fps
Standard                         : PAL
Stream size                      : 610 MiB (88%)
Language                         : English

Audio
Format                           : AAC
Format/Info                      : Advanced Audio Codec
Format profile                   : HE-AAC / LC
Codec ID                         : 40
Duration                         : 1h 52mn
Bit rate mode                    : Variable
Bit rate                         : 96.0 Kbps
Maximum bit rate                 : 108 Kbps
Channel(s)                       : 2 channels
Channel positions                : Front: L R
Sampling rate                    : 48.0 KHz / 24.0 KHz
Compression mode                 : Lossy
Stream size                      : 77.1 MiB (11%)
Language                         : English
